<?xml version="1.0" encoding="UTF-8" standalone="no"?>
<svg
   xmlns:dc="http://purl.org/dc/elements/1.1/"
   xmlns:cc="http://creativecommons.org/ns#"
   xmlns:rdf="http://www.w3.org/1999/02/22-rdf-syntax-ns#"
   xmlns:svg="http://www.w3.org/2000/svg"
   xmlns="http://www.w3.org/2000/svg"
   xmlns:sodipodi="http://sodipodi.sourceforge.net/DTD/sodipodi-0.dtd"
   xmlns:inkscape="http://www.inkscape.org/namespaces/inkscape"
   id="katman_1"
   style="enable-background:new 0 0 512 512;"
   version="1.1"
   viewBox="0 0 512 512"
   xml:space="preserve"
   sodipodi:docname="play.svg"
   inkscape:version="0.92.3 (2405546, 2018-03-11)"><metadata
     id="metadata19"><rdf:RDF><cc:Work
         rdf:about=""><dc:format>image/svg+xml</dc:format><dc:type
           rdf:resource="http://purl.org/dc/dcmitype/StillImage" /></cc:Work></rdf:RDF></metadata><defs
     id="defs17" /><sodipodi:namedview
     pagecolor="#ffffff"
     bordercolor="#666666"
     borderopacity="1"
     objecttolerance="10"
     gridtolerance="10"
     guidetolerance="10"
     inkscape:pageopacity="0"
     inkscape:pageshadow="2"
     inkscape:window-width="854"
     inkscape:window-height="480"
     id="namedview15"
     showgrid="false"
     inkscape:zoom="0.4609375"
     inkscape:cx="0"
     inkscape:cy="256"
     inkscape:window-x="67"
     inkscape:window-y="27"
     inkscape:window-maximized="0"
     inkscape:current-layer="g12" /><style
     type="text/css"
     id="style2">
	.st0{fill:#E84B3C;}
	.st1{fill:#C03A29;}
	.st2{fill:#FFFFFF;}
</style><g
     id="g12"><g
       id="g6"><circle
         class="st0"
         cx="256"
         cy="256"
         r="250"
         id="circle4" /></g><path
       class="st2"
       d="M163.9,406c-6.6,0-13.3-1.7-19.4-5.2c-12.5-7.1-19.9-19.8-19.9-34.2V145.4c0-14.3,7.5-27.1,19.9-34.2   c12.5-7.1,27.3-6.9,39.6,0.5l184.3,110.6c11.9,7.2,19.1,19.8,19.1,33.7c0,13.9-7.1,26.5-19.1,33.7L184.1,400.3   C177.8,404.1,170.8,406,163.9,406z M163.9,129.3c-2.7,0-5.4,0.7-7.9,2.1c-5.1,2.9-8.1,8.1-8.1,13.9v221.3c0,5.8,3,11,8.1,13.9   c5.1,2.9,11.1,2.8,16.1-0.2l184.3-110.6c4.9-3,7.8-8,7.8-13.7c0-5.8-2.8-10.8-7.8-13.7L172.1,131.6   C169.5,130.1,166.7,129.3,163.9,129.3z"
       id="path10" /></g></svg>