<?xml version="1.0" encoding="UTF-8" standalone="no"?>
<svg
   xmlns:dc="http://purl.org/dc/elements/1.1/"
   xmlns:cc="http://creativecommons.org/ns#"
   xmlns:rdf="http://www.w3.org/1999/02/22-rdf-syntax-ns#"
   xmlns:svg="http://www.w3.org/2000/svg"
   xmlns="http://www.w3.org/2000/svg"
   xmlns:sodipodi="http://sodipodi.sourceforge.net/DTD/sodipodi-0.dtd"
   xmlns:inkscape="http://www.inkscape.org/namespaces/inkscape"
   id="katman_1"
   style="enable-background:new 0 0 512 512;"
   version="1.1"
   viewBox="0 0 512 512"
   xml:space="preserve"
   sodipodi:docname="Settings.svg"
   inkscape:version="0.92.3 (2405546, 2018-03-11)"><metadata
     id="metadata23"><rdf:RDF><cc:Work
         rdf:about=""><dc:format>image/svg+xml</dc:format><dc:type
           rdf:resource="http://purl.org/dc/dcmitype/StillImage" /></cc:Work></rdf:RDF></metadata><defs
     id="defs21" /><sodipodi:namedview
     pagecolor="#ffffff"
     bordercolor="#666666"
     borderopacity="1"
     objecttolerance="10"
     gridtolerance="10"
     guidetolerance="10"
     inkscape:pageopacity="0"
     inkscape:pageshadow="2"
     inkscape:window-width="2493"
     inkscape:window-height="1385"
     id="namedview19"
     showgrid="false"
     inkscape:zoom="0.4609375"
     inkscape:cx="-2.2737368e-13"
     inkscape:cy="256"
     inkscape:window-x="67"
     inkscape:window-y="27"
     inkscape:window-maximized="1"
     inkscape:current-layer="g16" /><style
     type="text/css"
     id="style2">
	.st0{fill:#3997D3;}
	.st1{fill:#2981BA;}
	.st2{fill:#FFFFFF;}
</style><g
     id="g16"><g
       id="g6"><circle
         class="st0"
         cx="256"
         cy="256"
         r="250"
         id="circle4" /></g><g
       id="g14"><path
         class="st2"
         d="M269.4,406h-26.8c-7.7,0-14.4-5.7-15.6-13.4c-0.8-5.6-1.7-11.4-2.4-17.2c-0.1-0.7-0.6-1.3-1.2-1.4    c-9.7-2.7-19-6.5-27.8-11.5c-0.6-0.3-1.3-0.3-1.9,0.2c-4.6,3.6-9.3,7.1-13.9,10.5c-6.2,4.6-15,3.9-20.5-1.5l-19-19    c-5.5-5.5-6.1-14.3-1.5-20.5c3.4-4.6,6.9-9.3,10.5-13.9c0.4-0.6,0.5-1.3,0.2-1.9c-5-8.7-8.8-18.1-11.5-27.8    c-0.2-0.6-0.7-1.1-1.4-1.2c-5.8-0.8-11.6-1.6-17.2-2.4c-7.6-1.1-13.4-7.8-13.4-15.6v-26.8c0-7.7,5.7-14.4,13.4-15.6    c5.6-0.8,11.4-1.7,17.2-2.4c0.7-0.1,1.3-0.6,1.4-1.2c2.7-9.7,6.5-19,11.5-27.8c0.3-0.6,0.3-1.3-0.2-1.9    c-3.5-4.6-7.1-9.3-10.5-13.9c-4.6-6.2-3.9-15,1.5-20.5l19-19c5.5-5.5,14.3-6.1,20.5-1.5c4.6,3.4,9.3,6.9,13.9,10.5    c0.6,0.4,1.3,0.5,1.9,0.2c8.7-5,18.1-8.8,27.8-11.5c0.6-0.2,1.1-0.7,1.2-1.4c0.8-5.8,1.6-11.6,2.4-17.2    c1.1-7.6,7.8-13.4,15.6-13.4h26.8c7.7,0,14.4,5.7,15.6,13.4c0.8,5.6,1.7,11.4,2.4,17.2c0.1,0.7,0.6,1.3,1.2,1.4    c9.7,2.7,19,6.5,27.8,11.5c0.6,0.3,1.3,0.3,1.9-0.2c4.6-3.6,9.3-7.1,13.9-10.5c6.2-4.6,15-3.9,20.5,1.5l19,19    c5.5,5.5,6.1,14.3,1.5,20.5c-3.4,4.6-6.9,9.3-10.5,13.9c-0.4,0.6-0.5,1.3-0.2,1.9c5,8.7,8.8,18.1,11.5,27.8    c0.2,0.6,0.7,1.1,1.4,1.2c5.8,0.8,11.6,1.6,17.2,2.4c7.6,1.1,13.4,7.8,13.4,15.6v26.8c0,7.7-5.7,14.4-13.4,15.6    c-5.6,0.8-11.4,1.7-17.2,2.4c-0.7,0.1-1.3,0.6-1.4,1.2c-2.7,9.7-6.5,19-11.5,27.8c-0.3,0.6-0.3,1.3,0.2,1.9    c3.6,4.6,7.1,9.3,10.5,13.9c4.6,6.2,3.9,15-1.5,20.5l-19,19c-5.5,5.5-14.3,6.1-20.5,1.5c-4.6-3.4-9.3-6.9-13.9-10.5    c-0.6-0.4-1.3-0.5-1.9-0.2c-8.7,5-18.1,8.8-27.8,11.5c-0.6,0.2-1.1,0.7-1.2,1.4c-0.8,5.8-1.6,11.6-2.4,17.2    C283.8,400.3,277.1,406,269.4,406z M194.8,348.2c2.7,0,5.3,0.7,7.7,2c7.7,4.4,16,7.8,24.6,10.2c6.1,1.7,10.6,6.8,11.4,13.1    c0.7,5.7,1.5,11.4,2.4,17c0.1,0.8,0.9,1.4,1.7,1.4h26.8c0.8,0,1.6-0.6,1.7-1.4c0.8-5.6,1.6-11.3,2.4-17    c0.8-6.3,5.3-11.5,11.4-13.1c8.6-2.4,16.8-5.8,24.6-10.2c5.5-3.1,12.3-2.6,17.3,1.2c4.6,3.5,9.2,7,13.7,10.3    c0.7,0.5,1.6,0.4,2.2-0.2l19-19c0.6-0.6,0.7-1.6,0.2-2.2c-3.3-4.5-6.8-9.1-10.3-13.7c-3.9-5-4.4-11.8-1.2-17.4    c4.4-7.7,7.8-16,10.2-24.6c1.7-6.1,6.8-10.6,13.1-11.4c5.7-0.7,11.4-1.5,17-2.4c0.8-0.1,1.4-0.9,1.4-1.7v-26.8    c0-0.8-0.6-1.6-1.4-1.7c-5.6-0.8-11.3-1.6-17-2.4c-6.3-0.8-11.5-5.3-13.1-11.4c-2.4-8.6-5.8-16.8-10.2-24.6    c-3.1-5.5-2.6-12.3,1.2-17.4c3.5-4.6,7-9.1,10.3-13.7c0.5-0.7,0.4-1.6-0.2-2.2l-19-19c-0.6-0.6-1.6-0.7-2.2-0.2    c-4.5,3.3-9.1,6.8-13.7,10.3c-5,3.9-11.8,4.4-17.3,1.2c-7.7-4.4-16-7.8-24.6-10.2c-6.1-1.7-10.6-6.8-11.4-13.1    c-0.7-5.7-1.5-11.4-2.4-17c-0.1-0.8-0.9-1.4-1.7-1.4h-26.8c-0.8,0-1.6,0.6-1.7,1.4c-0.8,5.5-1.6,11.3-2.4,17    c-0.8,6.3-5.3,11.5-11.4,13.1c-8.6,2.4-16.8,5.8-24.6,10.2c-5.5,3.1-12.3,2.6-17.4-1.2c-4.6-3.5-9.2-7-13.7-10.3    c-0.7-0.5-1.6-0.4-2.2,0.2l-19,19c-0.6,0.6-0.7,1.6-0.2,2.2c3.3,4.5,6.8,9.1,10.3,13.7c3.9,5,4.4,11.8,1.2,17.3    c-4.4,7.7-7.8,16-10.2,24.6c-1.7,6.1-6.8,10.6-13.1,11.4c-5.7,0.7-11.4,1.5-17,2.4c-0.8,0.1-1.4,0.9-1.4,1.7v26.8    c0,0.8,0.6,1.6,1.4,1.7c5.6,0.8,11.3,1.6,17,2.4c6.3,0.8,11.5,5.3,13.1,11.4c2.4,8.6,5.8,16.8,10.2,24.6    c3.1,5.5,2.6,12.3-1.2,17.3c-3.5,4.6-7,9.2-10.3,13.7c-0.5,0.7-0.4,1.6,0.2,2.2l19,19c0.6,0.6,1.6,0.7,2.2,0.2    c4.5-3.3,9.1-6.8,13.7-10.3C188,349.3,191.4,348.2,194.8,348.2z"
         id="path10" /><path
         class="st2"
         d="M256,321.1c-35.9,0-65.1-29.2-65.1-65.1s29.2-65.1,65.1-65.1s65.1,29.2,65.1,65.1S291.9,321.1,256,321.1z     M256,204.9c-28.2,0-51.1,22.9-51.1,51.1c0,28.2,22.9,51.1,51.1,51.1s51.1-22.9,51.1-51.1S284.2,204.9,256,204.9z"
         id="path12" /></g></g></svg>