<?xml version="1.0" encoding="UTF-8" standalone="no"?>
<!-- Created with Inkscape (http://www.inkscape.org/) -->

<svg
   xmlns:dc="http://purl.org/dc/elements/1.1/"
   xmlns:cc="http://creativecommons.org/ns#"
   xmlns:rdf="http://www.w3.org/1999/02/22-rdf-syntax-ns#"
   xmlns:svg="http://www.w3.org/2000/svg"
   xmlns="http://www.w3.org/2000/svg"
   xmlns:xlink="http://www.w3.org/1999/xlink"
   xmlns:sodipodi="http://sodipodi.sourceforge.net/DTD/sodipodi-0.dtd"
   xmlns:inkscape="http://www.inkscape.org/namespaces/inkscape"
   width="132.29201mm"
   height="132.29201mm"
   viewBox="0 0 132.29201 132.29201"
   version="1.1"
   id="svg8"
   inkscape:version="0.92.3 (2405546, 2018-03-11)"
   sodipodi:docname="F (копия).svg">
  <defs
     id="defs2">
    <linearGradient
       inkscape:collect="always"
       id="linearGradient852">
      <stop
         style="stop-color:#000000;stop-opacity:1;"
         offset="0"
         id="stop848" />
      <stop
         style="stop-color:#000000;stop-opacity:0;"
         offset="1"
         id="stop850" />
    </linearGradient>
    <linearGradient
       inkscape:collect="always"
       xlink:href="#linearGradient852"
       id="linearGradient976"
       gradientUnits="userSpaceOnUse"
       x1="85.271484"
       y1="570.98242"
       x2="325.45898"
       y2="570.98242" />
  </defs>
  <sodipodi:namedview
     id="base"
     pagecolor="#ffffff"
     bordercolor="#666666"
     borderopacity="1.0"
     inkscape:pageopacity="0.0"
     inkscape:pageshadow="2"
     inkscape:zoom="1.4142136"
     inkscape:cx="277.73517"
     inkscape:cy="217.48404"
     inkscape:document-units="mm"
     inkscape:current-layer="flowRoot840"
     showgrid="false"
     inkscape:window-width="2493"
     inkscape:window-height="1385"
     inkscape:window-x="67"
     inkscape:window-y="27"
     inkscape:window-maximized="1"
     showguides="false"
     inkscape:snap-to-guides="true">
    <inkscape:grid
       type="xygrid"
       id="grid4685" />
  </sodipodi:namedview>
  <metadata
     id="metadata5">
    <rdf:RDF>
      <cc:Work
         rdf:about="">
        <dc:format>image/svg+xml</dc:format>
        <dc:type
           rdf:resource="http://purl.org/dc/dcmitype/StillImage" />
        <dc:title />
      </cc:Work>
    </rdf:RDF>
  </metadata>
  <g
     inkscape:label="Layer 1"
     inkscape:groupmode="layer"
     id="layer1"
     transform="translate(0,-164.708)">
    <g
       id="g898"
       transform="matrix(0.26458333,0,0,0.26458333,-1.5875,163.12084)">
      <circle
         style="fill:#34b297;fill-opacity:1"
         class="st0"
         cx="256"
         cy="256"
         r="250"
         id="circle896" />
    </g>
    <g
       aria-label="RX"
       transform="matrix(0.26458333,0,0,0.26458333,-11.839431,181.32005)"
       style="font-style:normal;font-variant:normal;font-weight:normal;font-stretch:normal;font-size:40px;line-height:1.25;font-family:Vemana2000;-inkscape-font-specification:Vemana2000;letter-spacing:0px;word-spacing:0px;fill:url(#linearGradient976);fill-opacity:1;stroke:none"
       id="flowRoot840">
      <flowRoot
         xml:space="preserve"
         id="flowRoot827"
         style="font-style:normal;font-weight:normal;font-size:40px;line-height:1.25;font-family:sans-serif;letter-spacing:0px;word-spacing:0px;fill:#000000;fill-opacity:1;stroke:none"
         transform="translate(-57.127484,315.19728)"><flowRegion
           id="flowRegion829"><rect
             id="rect831"
             width="88"
             height="91"
             x="-129"
             y="8.0012884" /></flowRegion><flowPara
           id="flowPara833">J3EAJ3EAJJО</flowPara></flowRoot>      <path
         style="fill:#ffffff;fill-opacity:1;stroke-width:0.59926611"
         d="m 303.70407,-19.533068 c 0.6582,0.806457 1.09974,49.506061 1.63137,179.929648 0.38555,94.58716 0.97164,148.76502 1.57359,145.46264 0.55403,-3.03936 0.92666,-3.73618 1.99801,-3.73618 0.94424,0 1.15054,-1.92622 2.43885,-22.77212 1.0552,-17.07429 1.10236,-17.37872 2.69177,-17.37872 1.1491,0 1.18977,-0.47498 1.27002,-14.83183 0.0456,-8.15752 0.24785,-19.28139 0.44945,-24.71973 0.35014,-9.44541 0.42275,-9.89593 1.62241,-10.06728 1.20232,-0.17173 1.2716,-0.61685 1.62441,-10.43721 0.36977,-10.2925 0.59115,-11.22238 2.67777,-11.24745 0.42015,-0.005 0.98813,0.59759 1.26218,1.33918 0.27405,0.74159 0.66103,14.64499 0.85997,30.89642 0.35518,29.01546 0.38425,29.56642 1.61223,30.56258 1.21047,0.98196 1.27803,1.88823 2.10804,28.28111 0.47163,14.99663 0.86358,28.0082 0.871,28.91459 l 0.0135,1.64798 h -20.1465 -20.14649 l 0.36887,-28.91459 c 0.20289,-15.90302 0.50502,-56.96025 0.67142,-91.23828 0.49451,-101.870651 0.97445,-144.347331 1.64029,-145.172221 0.79833,-0.989022 1.37511,-0.944803 2.51253,0.192622 0.7129,0.712906 0.9417,2.218442 0.9417,6.196587 0,8.931822 0.84022,25.638216 1.17808,23.424282 0.26563,-1.740557 0.5704,-2.097432 1.79124,-2.097432 1.07358,0 1.56857,0.404864 1.83163,1.498165 0.32144,1.335837 0.39062,1.368305 0.63849,0.299634 0.1529,-0.659193 0.37019,-22.232774 0.48287,-47.941292 0.11817,-26.9614032 0.43894,-47.186567 0.75796,-47.791477 0.64714,-1.227013 1.90549,-1.362969 2.77335,-0.299626 z m -27.47963,97.77231 c 0.67221,0.809974 1.50162,69.939258 1.91681,159.762318 0.0769,16.64461 0.24469,30.57024 0.37279,30.9458 0.1281,0.37557 0.70626,0.55906 1.28478,0.4078 0.57853,-0.15131 1.34614,0.0807 1.7058,0.51567 0.40763,0.4929 0.9561,8.63381 1.4563,21.61559 l 0.80239,20.82492 -12.13515,-4.2e-4 -12.13514,-3.6e-4 -0.005,-4.64432 c -0.009,-7.94872 1.24352,-48.88537 1.55845,-50.93762 0.16438,-1.07118 0.65659,-1.94761 1.09377,-1.94761 0.84604,0 1.11344,-14.62827 1.88962,-103.37342 0.19025,-21.75336 0.47903,-40.02348 0.64174,-40.60028 0.45246,-1.60411 3.12232,-1.37315 3.4637,0.29964 0.31162,1.52688 0.9391,58.89873 0.99211,90.71108 l 0.035,21.04637 1.45767,0.66416 1.45767,0.66417 0.10251,-33.39624 c 0.0564,-18.36793 0.16255,-33.80074 0.23593,-34.29513 0.0734,-0.4944 0.16209,-18.07109 0.19713,-39.05931 0.0565,-33.836787 0.1704,-38.267113 1.00541,-39.102119 1.16089,-1.160899 1.70839,-1.182053 2.60585,-0.100689 z m 78.80992,35.458578 c 0.78817,0.78817 0.95373,2.94781 1.02213,13.33249 0.0917,13.92477 0.36109,14.19881 0.98884,1.00591 l 0.42771,-8.98899 h 1.48158 c 1.26389,0 1.53898,0.3522 1.87225,2.39706 0.21486,1.31838 0.72468,25.18416 1.13292,53.03505 0.71734,48.93764 1.55256,72.34 1.72779,48.41184 0.0744,-10.15747 0.13254,-10.64522 1.34619,-11.29476 2.57579,-1.37851 2.75349,-0.34667 3.77326,21.91064 0.52854,11.53587 0.95874,22.25525 0.95598,23.82083 -0.004,2.46023 0.15964,2.84652 1.20835,2.84652 0.71135,0 1.41925,0.55786 1.71098,1.34834 0.2737,0.74159 0.67095,7.50707 0.88279,15.03439 0.35982,12.78577 0.46536,13.75155 1.60437,14.68202 0.94154,0.76917 1.33314,2.08791 1.71938,5.79011 0.27508,2.63677 0.54427,3.85029 0.59818,2.6967 0.0539,-1.15359 0.47052,-12.7356 0.9258,-25.73788 0.74406,-21.24962 0.93389,-23.718 1.87704,-24.40769 0.95926,-0.70138 1.10516,-3.3149 1.70079,-30.46547 0.55412,-25.25818 0.78592,-29.78316 1.55042,-30.26619 2.86079,-1.80746 3.07419,-0.52868 3.62465,21.72034 0.27952,11.29748 0.65414,25.1253 0.83252,30.72844 0.17837,5.60314 0.36959,13.1539 0.42492,16.77946 0.0981,6.42383 0.11161,6.48495 0.53117,2.39706 0.2368,-2.30718 0.46403,-6.26275 0.50498,-8.79016 0.041,-2.5274 0.23811,-5.02185 0.43818,-5.5432 0.44098,-1.14916 2.98274,-1.26296 3.40882,-0.15258 0.16787,0.43746 0.64034,15.33672 1.04995,33.10945 0.67316,29.20848 1.11353,36.24853 1.99864,31.95132 0.16256,-0.78924 0.60044,-15.18817 0.97307,-31.99758 0.5593,-25.23042 0.82914,-30.7176 1.54664,-31.45134 0.65897,-0.67382 1.12001,-0.73105 1.90661,-0.23666 1.22178,0.76791 1.60935,6.1918 2.34994,32.88653 l 0.4655,16.77945 0.46395,-14.68201 c 0.25517,-8.07512 0.66413,-16.43488 0.90881,-18.57726 0.38626,-3.38195 0.6172,-3.91974 1.75267,-4.08142 0.79531,-0.1132 1.52637,0.23905 1.86555,0.8989 0.30676,0.59681 0.72768,7.00074 0.93537,14.23107 0.36979,12.87332 0.49025,13.60694 2.34218,14.26362 0.25203,0.0894 0.84482,5.11365 1.31731,11.16505 1.25885,16.12223 1.69635,15.47945 2.93725,-4.31502 0.61433,-9.79962 1.03907,-13.30137 1.69268,-13.95493 1.26881,-1.26883 2.8051,-0.40205 3.14827,1.77616 0.2714,1.72277 1.53268,23.68084 1.53268,26.68316 0,0.96015 0.36967,1.2747 1.49817,1.2747 0.82398,0 1.50726,-0.0674 1.5184,-0.14981 0.0112,-0.0824 0.40266,-9.3908 0.87007,-20.68529 0.46741,-11.29449 1.01356,-20.80035 1.21367,-21.12413 0.60467,-0.97836 2.9843,-0.66237 4.30955,0.5723 1.17292,1.0927 1.27207,2.0441 1.68767,16.19211 0.24285,8.26712 0.63631,15.15148 0.87435,15.2986 0.23805,0.14713 0.61723,-3.63526 0.84262,-8.40531 0.22538,-4.77003 0.56526,-9.07797 0.7553,-9.57321 0.19004,-0.49517 0.98995,-1.06214 1.77758,-1.25977 1.23016,-0.30881 1.43207,-0.72014 1.43207,-2.91784 0,-1.43805 0.36036,-2.85742 0.82294,-3.24131 0.92885,-0.77089 2.74161,-0.29076 2.83239,0.75017 0.0329,0.3767 0.264,0.0108 0.51365,-0.81321 0.24965,-0.82399 0.50314,-6.07823 0.56331,-11.6761 0.12005,-11.16912 0.31103,-12.63127 1.72048,-13.17211 2.31297,-0.88757 2.60068,0.69976 3.15767,17.42109 0.29526,8.86404 0.58555,19.21768 0.64507,23.00804 0.0962,6.1281 0.15764,6.49323 0.55435,3.29596 0.24536,-1.97757 0.47538,-6.18346 0.51116,-9.34639 0.1259,-11.13214 0.74221,-16.7212 1.91294,-17.34779 2.36501,-1.26571 2.77835,0.43182 3.24647,13.33277 0.43023,11.8566 0.65082,13.02751 2.45901,13.05261 0.45368,0.007 0.79832,-4.63154 1.0958,-14.74656 0.23869,-8.11562 0.57648,-15.12704 0.75064,-15.58091 0.17417,-0.45383 0.95685,-0.8252 1.7393,-0.8252 1.43216,0 1.75011,0.60784 2.19438,4.19486 0.10206,0.824 0.38409,-1.72462 0.62674,-5.66354 0.40959,-6.64898 0.81913,-8.07637 2.32696,-8.1104 0.22365,-0.006 0.83041,0.41456 1.34834,0.93252 0.76029,0.76028 0.95499,2.57863 1.01062,9.43844 0.0444,5.47783 0.2256,7.68744 0.50989,6.219 0.85952,-4.43967 3.31061,-4.64767 4.87909,-0.41398 1.0006,2.70078 2.86976,15.39557 3.00302,20.39561 l 0.0712,2.67116 0.70754,-2.99633 c 0.55694,-2.35852 0.98806,-3.03707 2.02529,-3.18767 1.84325,-0.26769 2.17977,0.97842 3.29463,12.2001 1.12044,11.27783 1.57625,12.86079 3.70322,12.86079 0.83215,0 1.52345,-0.20225 1.53622,-0.44945 0.43693,-8.45732 1.81334,-19.62195 2.5042,-20.31279 1.21906,-1.21908 2.77368,-0.3988 3.41061,1.79942 l 0.5458,1.88373 0.0541,-2.22614 c 0.0643,-2.65044 1.98022,-4.19463 3.41904,-2.75579 1.21803,1.21807 2.48032,6.65185 3.29924,14.20231 0.50069,4.61638 0.95657,6.66018 1.48559,6.66018 0.41978,0 0.87199,-0.87643 1.00493,-1.94762 0.14946,-1.20435 0.27829,-0.64007 0.3376,1.47869 l 0.0959,3.42625 -20.52487,-0.32714 c -11.28868,-0.1799 -47.14733,-0.52328 -79.68591,-0.76305 -32.53858,-0.23971 -59.3089,-0.58374 -59.4896,-0.76442 -0.28351,-0.28351 0.065,-2.58428 1.23354,-8.14409 0.1973,-0.93869 0.71436,-1.34835 1.70174,-1.34835 h 1.41834 l 0.35801,-16.92927 c 0.19691,-9.31109 0.49852,-37.01967 0.67023,-61.5746 0.17172,-24.55493 0.4858,-59.42161 0.69795,-77.48151 0.36019,-30.66139 0.45649,-32.87404 1.454,-33.4079 0.76648,-0.41021 1.33396,-0.30603 2.00878,0.3688 z m -109.07444,20.18124 c 0.26129,1.29118 0.56307,24.20963 1.29214,98.12983 0.18367,18.6222 0.72082,43.29226 1.19369,54.82232 0.47287,11.53006 0.85975,21.76402 0.85975,22.74214 0,1.1446 0.20643,1.57194 0.57925,1.19913 0.6765,-0.6765 1.01535,-13.99376 1.85925,-73.07055 0.339,-23.73095 0.75619,-43.61909 0.92711,-44.19589 0.36243,-1.22312 2.19712,-1.38992 3.11558,-0.28325 0.42417,0.5111 0.84237,16.79048 1.25851,48.98999 0.34277,26.52352 0.77342,53.14604 0.95698,59.16118 l 0.33375,10.9366 h -36.37178 -36.3718 l 0.39905,-32.80982 c 0.21949,-18.04541 0.54801,-45.34947 0.73006,-60.67571 0.18205,-15.32623 0.44761,-28.44288 0.59014,-29.14812 0.33026,-1.63413 2.03218,-2.30565 3.11052,-1.22731 0.66389,0.66389 0.90192,5.23605 1.18671,22.79414 0.32943,20.31013 0.43453,21.96369 1.3961,21.96369 1.38912,0 1.7492,1.13867 1.86319,5.89187 0.0527,2.1978 0.29682,-2.80463 0.54246,-11.11652 0.47513,-16.07669 1.17194,-20.09384 3.59532,-20.72757 2.46195,-0.64382 2.54227,0.20031 3.05733,32.12927 0.27218,16.87282 0.59402,31.21716 0.71521,31.87635 0.12119,0.65919 0.25885,-5.13871 0.3059,-12.88422 0.22777,-37.4964 1.3121,-120.90752 1.58728,-122.10048 0.34166,-1.4812 2.14693,-1.82409 3.15507,-0.59927 0.4058,0.49301 0.84165,24.00033 1.275,68.76579 0.36214,37.4092 0.70204,71.25275 0.75535,75.20791 l 0.0969,7.19119 0.43153,-9.88789 c 0.23734,-5.43834 0.48783,-13.71445 0.55665,-18.39136 0.13812,-9.3881 0.5836,-10.8539 3.05233,-10.04346 0.79888,0.26224 2.12668,0.49757 2.95067,0.52292 l 1.49816,0.0461 0.44258,9.28863 c 0.24341,5.10874 0.67429,14.27751 0.95752,20.37505 0.48856,10.51838 0.52178,10.73327 0.6487,4.19486 0.0736,-3.79035 0.33357,-13.56912 0.57778,-21.73059 0.46691,-15.60489 0.74018,-17.0158 3.01988,-15.59212 1.07286,0.67004 1.13741,0.30161 1.47259,-8.40471 0.19281,-5.00801 0.50573,-30.00487 0.69538,-55.54858 0.18966,-25.54373 0.48228,-46.91506 0.65027,-47.49185 0.36581,-1.25606 2.95006,-1.4206 3.41183,-0.21723 0.1755,0.45732 0.47918,17.91843 0.67485,38.80248 0.19568,20.88405 0.53417,46.19593 0.75219,56.24865 0.35071,16.17024 0.47566,17.85843 1.08375,14.64211 0.81891,-4.33132 1.20374,-5.05386 2.69177,-5.05386 2.18962,0 2.21913,0.19363 2.32059,15.23132 0.042,6.23488 0.19773,11.21484 0.34594,11.06664 0.87412,-0.87409 2.18069,-30.89001 2.69683,-61.95432 0.86217,-51.89133 1.25229,-68.57976 1.62596,-69.55353 0.54859,-1.42962 3.13421,-1.06362 3.44822,0.48811 z m 95.83379,12.69406 c 0.18121,0.4722 0.60791,29.52912 0.94824,64.57093 0.34033,35.04181 0.76341,72.13956 0.94019,82.43945 l 0.3214,18.72706 h -6.51582 c -6.41678,0 -6.51278,-0.0203 -6.31621,-1.34835 0.17896,-1.20883 1.29692,-59.6893 1.51508,-79.25294 0.0904,-8.10778 0.52225,-10.48717 1.90333,-10.48717 0.91328,0 1.60564,-19.43956 1.60795,-45.14681 8.3e-4,-13.84567 1.20142,-28.01969 2.50562,-29.59116 0.85535,-1.03063 2.68076,-0.97805 3.09022,0.089 z m -168.33818,64.20463 c 0.77385,0.77385 0.9417,2.57236 0.9417,10.0897 0,5.03139 0.17818,18.07741 0.39595,28.99113 0.38808,19.44834 0.41927,19.83067 1.56809,19.21583 2.64452,-1.41529 2.84247,-0.26374 3.73059,21.70218 0.45819,11.33224 0.6041,20.74588 0.32423,20.91919 -0.27985,0.1733 -9.16507,0.24042 -19.7449,0.14909 l -19.23609,-0.16611 0.92339,-2.20998 c 0.50787,-1.21549 1.21722,-2.39155 1.57634,-2.61352 0.43347,-0.26793 0.83542,-7.42563 1.19585,-21.29498 0.64733,-24.9097 0.9802,-28.90507 2.4845,-29.82026 2.03841,-1.24012 2.81122,0.95612 2.8131,7.99468 0.003,13.48409 0.7773,28.83999 1.44205,28.6212 0.35952,-0.1183 0.79136,-1.67705 0.95963,-3.46388 0.34938,-3.71006 0.95001,-4.96816 2.15174,-4.50702 0.46106,0.17696 0.8594,0.26271 0.8852,0.19068 0.0259,-0.072 0.53978,-9.80411 1.14214,-21.62679 1.13536,-22.28348 1.37363,-23.73825 3.73927,-22.83049 1.07797,0.41368 1.64354,2.09612 1.65543,4.92453 0.007,1.54539 0.25571,1.94762 1.2067,1.94762 1.07602,0 1.19853,-0.39953 1.19853,-3.90805 0,-3.52075 0.13961,-3.9717 1.4085,-4.54987 1.33756,-0.6094 1.42797,-1.02373 1.79536,-8.22703 0.21279,-4.17197 0.38797,-9.419 0.38931,-11.66014 0.002,-3.95224 1.06135,-7.31104 2.63293,-8.35079 0.97374,-0.64422 1.3728,-0.56458 2.42046,0.48308 z m -37.56417,20.7817 c 0.34889,0.44058 0.88808,12.59459 1.30931,29.51386 0.39388,15.82062 1.10381,33.43006 1.57764,39.13208 0.47382,5.70202 0.86115,10.6909 0.86074,11.08642 -5.3e-4,0.50446 -1.56584,0.71912 -5.24358,0.71912 -3.10345,0 -5.23808,-0.24457 -5.23122,-0.59927 0.007,-0.3296 0.35347,-4.77915 0.7713,-9.88789 0.41783,-5.10874 1.13738,-22.83809 1.599,-39.39851 0.46162,-16.56042 1.00689,-30.381 1.21168,-30.71239 0.52014,-0.84161 2.43324,-0.75244 3.14513,0.14658 z m -28.97568,42.14746 c 0.20006,0.52137 0.36375,2.67873 0.36375,4.79413 0,4.44302 1.04368,5.23615 1.31551,0.9997 0.15405,-2.4009 0.3874,-2.87564 1.49046,-3.03271 0.79052,-0.11253 1.53677,0.24301 1.88668,0.89891 0.31839,0.5968 0.77927,6.4741 1.02419,13.06076 0.24492,6.58659 0.63932,11.44065 0.87645,10.78679 0.23712,-0.65392 0.62647,-6.31261 0.8652,-12.57494 0.23999,-6.29523 0.71199,-11.72099 1.05566,-12.13514 0.87436,-1.05369 2.6735,-0.93198 3.11193,0.21058 0.20253,0.52777 0.7033,6.39309 1.11282,13.03404 l 0.74459,12.07437 0.4656,-8.09009 c 0.69367,-12.0531 1.06208,-14.04428 2.63999,-14.26895 0.79506,-0.11319 1.52692,0.23924 1.86668,0.89891 0.30737,0.59681 0.73588,5.13013 0.95224,10.07407 0.21636,4.94396 0.55907,11.82053 0.76158,15.28129 l 0.3682,6.2923 -22.09074,-0.18613 c -12.149923,-0.10236 -22.191197,-0.28651 -22.31395,-0.4093 -0.122753,-0.12274 0.05556,-1.11769 0.396235,-2.21094 0.340682,-1.0933 1.064309,-4.05751 1.608064,-6.58719 0.57245,-2.6632 1.345935,-4.7366 1.837368,-4.92519 1.535159,-0.58908 2.623762,0.32301 3.275865,2.74476 0.472438,1.75447 0.883418,2.29304 1.553686,2.03583 0.501232,-0.19237 1.135241,-0.34973 1.408905,-0.34973 0.273676,0 0.679796,-1.07856 0.902506,-2.39677 0.22271,-1.31814 0.80763,-2.62209 1.29982,-2.89751 0.65232,-0.36508 1.09464,-2.56222 1.63178,-8.10544 0.76407,-7.88508 1.52181,-9.81052 3.553991,-9.0307 0.55291,0.21221 1.00529,1.01522 1.00529,1.7845 0,0.76928 0.26967,1.56534 0.59927,1.76903 0.3791,0.23432 0.59927,-1.27583 0.59927,-4.11048 0,-5.41383 0.31669,-6.37668 2.09742,-6.37668 0.75347,0 1.53363,0.42656 1.73369,0.94792 z m -28.231585,27.81686 c 0.702339,9.4213 0.875665,10.07744 2.737387,10.36341 1.518175,0.23311 1.508976,0.24731 -0.210133,0.32439 -3.23467,0.14508 -3.347225,-0.17284 -3.164263,-8.93656 l 0.167933,-8.04354 z"
         id="path904"
         inkscape:connector-curvature="0" />
    </g>
  </g>
  <style
     id="style815"
     type="text/css">
	.st0{fill:#E84B3C;}
	.st1{fill:#C0392A;}
	.st2{fill:#FFFFFF;}
</style>
  <style
     id="style860"
     type="text/css">
	.st0{fill:#E84B3C;}
	.st1{fill:#C0392A;}
	.st2{fill:#FFFFFF;}
</style>
  <style
     id="style894"
     type="text/css">
	.st0{fill:#E84B3C;}
	.st1{fill:#C0392A;}
	.st2{fill:#FFFFFF;}
</style>
  <style
     type="text/css"
     id="style815-2">
	.st0{fill:#E84B3C;}
	.st1{fill:#C0392A;}
	.st2{fill:#FFFFFF;}
</style>
  <style
     type="text/css"
     id="style860-6">
	.st0{fill:#E84B3C;}
	.st1{fill:#C0392A;}
	.st2{fill:#FFFFFF;}
</style>
  <style
     type="text/css"
     id="style894-1">
	.st0{fill:#E84B3C;}
	.st1{fill:#C0392A;}
	.st2{fill:#FFFFFF;}
</style>
</svg>
