<?xml version="1.0" encoding="UTF-8" standalone="no"?>
<!-- Created with Inkscape (http://www.inkscape.org/) -->

<svg
   xmlns:dc="http://purl.org/dc/elements/1.1/"
   xmlns:cc="http://creativecommons.org/ns#"
   xmlns:rdf="http://www.w3.org/1999/02/22-rdf-syntax-ns#"
   xmlns:svg="http://www.w3.org/2000/svg"
   xmlns="http://www.w3.org/2000/svg"
   xmlns:sodipodi="http://sodipodi.sourceforge.net/DTD/sodipodi-0.dtd"
   xmlns:inkscape="http://www.inkscape.org/namespaces/inkscape"
   width="132.29201mm"
   height="132.29201mm"
   viewBox="0 0 132.29201 132.29201"
   version="1.1"
   id="svg8"
   inkscape:version="0.92.3 (2405546, 2018-03-11)"
   sodipodi:docname="Star.svg">
  <defs
     id="defs2" />
  <sodipodi:namedview
     id="base"
     pagecolor="#ffffff"
     bordercolor="#666666"
     borderopacity="1.0"
     inkscape:pageopacity="0.0"
     inkscape:pageshadow="2"
     inkscape:zoom="2.0000001"
     inkscape:cx="339.397"
     inkscape:cy="266.82442"
     inkscape:document-units="mm"
     inkscape:current-layer="layer1"
     showgrid="false"
     inkscape:window-width="2493"
     inkscape:window-height="1385"
     inkscape:window-x="67"
     inkscape:window-y="27"
     inkscape:window-maximized="1"
     showguides="false"
     inkscape:snap-to-guides="true">
    <inkscape:grid
       type="xygrid"
       id="grid4685" />
  </sodipodi:namedview>
  <metadata
     id="metadata5">
    <rdf:RDF>
      <cc:Work
         rdf:about="">
        <dc:format>image/svg+xml</dc:format>
        <dc:type
           rdf:resource="http://purl.org/dc/dcmitype/StillImage" />
        <dc:title />
      </cc:Work>
    </rdf:RDF>
  </metadata>
  <g
     inkscape:label="Layer 1"
     inkscape:groupmode="layer"
     id="layer1"
     transform="translate(0,-164.708)">
    <g
       id="g898"
       transform="matrix(0.26458333,0,0,0.26458333,-1.5875,163.12084)">
      <circle
         style="fill:#34b297;fill-opacity:1"
         class="st0"
         cx="256"
         cy="256"
         r="250"
         id="circle896" />
    </g>
    <path
       style="fill:#ffffff;stroke-width:0.15742514;fill-opacity:1"
       d="m 64.510787,293.97116 c -2.113917,-0.56847 -4.194727,-2.52895 -4.81756,-4.539 -0.569514,-1.83796 -0.56932,-1.8355 -0.274985,-3.50614 0.227895,-1.29353 0.373181,-1.71709 0.751039,-2.18951 1.620073,-2.02554 2.797897,-2.88448 4.547241,-3.31617 l 1.037556,-0.25604 V 256.02216 231.88002 H 41.385157 17.016238 l -0.177622,1.03696 c -0.24462,1.42807 -0.886406,2.66029 -1.922775,3.69166 -1.14281,1.13729 -2.07566,1.66296 -3.64368,2.0532 -1.215969,0.30264 -1.3395573,0.3062 -2.4831628,0.0711 -1.4944326,-0.30707 -2.5991894,-0.85381 -3.6770703,-1.81973 -2.551608,-2.28662 -3.0683749,-6.08985 -1.1978238,-8.8156 1.2647857,-1.84305 2.8252771,-2.84816 5.0307244,-3.24033 1.3676235,-0.24318 1.3663915,-0.24331 3.2418185,0.33977 1.948476,0.60579 4.188883,3.00146 4.535667,4.84998 l 0.107582,0.57349 h 24.462093 24.462089 v -24.14215 -24.14212 l -1.037556,-0.25604 c -1.749344,-0.43171 -2.927168,-1.29066 -4.547241,-3.31619 -0.624789,-0.78115 -1.136681,-3.43096 -0.854439,-4.423 0.42766,-1.50313 0.601655,-1.9537 0.995227,-2.57716 2.162644,-3.42585 6.358102,-4.48718 9.703793,-2.45478 1.386061,0.84199 2.629956,2.36991 3.060467,3.75928 0.569513,1.83799 0.56932,1.83552 0.274985,3.50614 -0.227895,1.29355 -0.37318,1.71711 -0.751037,2.18952 -1.620075,2.02553 -2.797898,2.88448 -4.547242,3.31619 l -1.037556,0.25604 v 24.14212 24.14215 h 24.452569 24.452572 l 0.18089,-0.78366 c 0.17767,-0.76971 0.92735,-2.01167 1.74273,-2.88709 0.5903,-0.63379 1.96078,-1.51087 2.73867,-1.75272 1.88947,-0.58745 1.8726,-0.58569 3.18052,-0.33176 1.63867,0.31816 2.79223,0.90768 3.86657,1.97603 1.92667,1.91591 2.51737,3.91357 1.98408,6.70986 -0.23018,1.20694 -0.2463,1.24616 -0.77323,1.88018 -1.69725,2.04221 -2.70477,2.73558 -4.6946,3.23082 l -1.30749,0.32541 -1.3049,-0.31887 c -1.59309,-0.3893 -2.53532,-0.91808 -3.67106,-2.06019 -1.04161,-1.04746 -1.69172,-2.28975 -1.93183,-3.69147 l -0.17765,-1.03713 H 91.382398 67.013479 v 24.14214 24.14213 l 1.037556,0.25604 c 1.749344,0.4317 2.927167,1.29064 4.547242,3.31619 0.624788,0.78114 1.136678,3.43094 0.854437,4.42298 -0.427659,1.50315 -0.601655,1.95372 -0.995227,2.57717 -1.757633,2.78428 -4.885915,4.05755 -7.9467,3.23448 z m -21.724668,-4.09307 c -2.310318,-0.62127 -4.363916,-2.7038 -4.973293,-5.04335 -0.293908,-1.12839 -0.300004,-2.01467 -0.02383,-3.46283 0.230176,-1.20692 0.246309,-1.24615 0.773233,-1.88016 1.595835,-1.9202 2.684914,-2.71536 4.292477,-3.13408 6.02442,-1.56916 11.08178,5.39571 7.60099,10.46788 -1.836891,2.6767 -4.752269,3.83705 -7.669585,3.05254 z m 43.619678,0.004 c -2.96996,-0.79924 -5.212755,-3.70522 -5.221727,-6.76578 -0.01089,-3.70123 3.288899,-6.99914 7.003087,-6.99914 1.811246,0 3.866845,0.91975 5.055278,2.2619 1.537002,1.73582 1.476289,1.63114 1.736116,2.99354 0.276187,1.44815 0.270084,2.33443 -0.0238,3.46282 -0.965572,3.70707 -4.898796,6.02895 -8.548937,5.04666 z M 24.997079,277.76673 c -2.932815,-0.82367 -5.21114,-3.75747 -5.21114,-6.71042 0,-2.19188 0.796326,-3.91033 2.462919,-5.31487 1.832397,-1.54429 4.057815,-2.081 6.255339,-1.50861 2.999883,0.78137 5.299173,3.72 5.290252,6.76128 -0.0067,2.27162 -1.227164,4.54724 -3.075262,5.7338 -0.57787,0.37104 -1.343828,0.7811 -1.702125,0.91128 -0.961629,0.34941 -2.999745,0.41407 -4.019983,0.12754 z m 79.170831,-0.0138 c -0.47507,-0.12764 -1.00637,-0.32224 -1.18069,-0.43243 -1.85606,-1.17326 -2.02769,-1.3243 -2.77576,-2.44276 -2.323459,-3.47384 -1.251812,-7.8341 2.46004,-10.00939 2.66224,-1.56017 6.20297,-0.94197 8.522,1.48793 1.55803,1.63251 2.14931,4.05704 1.55027,6.35688 -0.96899,3.72022 -4.89665,6.02837 -8.57586,5.03977 z M 12.40307,259.03291 c -3.5683976,-1.00216 -5.7763488,-4.63229 -5.0443516,-8.29348 0.2054052,-1.02736 0.3778112,-1.40132 1.1184348,-2.42603 1.7792658,-2.46176 4.6352598,-3.54312 7.4330338,-2.81441 2.968923,0.77331 5.292578,3.71299 5.292578,6.6957 0,1.07512 -0.321032,2.54617 -0.634088,2.90555 -0.15085,0.17315 -0.324055,0.47878 -0.384899,0.67916 -0.06084,0.20037 -0.524229,0.787 -1.029748,1.30363 -1.769709,1.80859 -4.47343,2.58951 -6.75096,1.94988 z m 104.82903,0.12406 c -0.21646,-0.0398 -0.91239,-0.31121 -1.54651,-0.60338 -1.21503,-0.55983 -2.88219,-2.0509 -3.10182,-2.77418 -0.0608,-0.20038 -0.23404,-0.50601 -0.38489,-0.67916 -0.31306,-0.35938 -0.63409,-1.83043 -0.63409,-2.90555 0,-2.98271 2.32365,-5.92239 5.29258,-6.6957 2.79778,-0.7287 5.65376,0.35265 7.43303,2.81441 0.74063,1.02471 0.91303,1.39868 1.11843,2.42604 0.98281,4.91564 -3.2893,9.31357 -8.17673,8.41752 z M 12.623097,217.06562 c -1.491666,-0.33691 -3.1323562,-1.47598 -4.1459438,-2.87836 -0.7406236,-1.02472 -0.9130296,-1.39868 -1.1184348,-2.42604 -0.341307,-1.70711 -0.080847,-3.48809 0.7066495,-4.83185 2.4594071,-4.19666 7.7550371,-4.91862 11.0886621,-1.51175 0.505519,0.51663 0.968906,1.10327 1.029748,1.30364 0.06084,0.20036 0.234049,0.50599 0.384899,0.67916 0.313056,0.35937 0.634088,1.83042 0.634088,2.90555 0,2.98271 -2.323655,5.92237 -5.292578,6.69567 -0.999314,0.2603 -2.305456,0.28571 -3.28709,0.0639 z m 104.165753,-0.0721 c -2.91325,-0.78399 -5.22406,-3.74218 -5.22406,-6.68761 0,-1.07513 0.32103,-2.54618 0.63409,-2.90556 0.15085,-0.17315 0.32405,-0.47878 0.38489,-0.67916 0.22476,-0.74018 1.88707,-2.21439 3.16026,-2.80265 5.17364,-2.39036 10.79821,2.17376 9.6648,7.84263 -0.2054,1.02734 -0.3778,1.40131 -1.11843,2.42603 -1.78318,2.46716 -4.70297,3.55944 -7.50155,2.80632 z m -91.797119,-18.7382 c -2.357884,-0.63386 -4.515655,-2.78621 -4.973038,-4.96052 -0.295751,-1.40595 -0.294372,-2.35743 0.0051,-3.50715 0.836702,-3.21231 3.995497,-5.50056 7.239848,-5.24457 1.376989,0.10862 2.12242,0.37396 3.455553,1.2299 1.848098,1.18655 3.068601,3.46218 3.075263,5.73381 0.0131,4.46801 -4.478056,7.91113 -8.802719,6.74853 z m 79.203109,0.005 c -2.94417,-0.7923 -5.230536,-3.74924 -5.221735,-6.75322 0.0062,-2.27163 1.227165,-4.54723 3.075265,-5.73381 1.33314,-0.85593 2.07857,-1.12124 3.45555,-1.22988 3.87171,-0.3055 7.47769,3.02263 7.47769,6.90148 0,2.1919 -0.79633,3.91033 -2.46291,5.31489 -1.83111,1.5432 -4.13444,2.08975 -6.32386,1.50054 z m -61.408721,-12.1256 c -1.543073,-0.41495 -2.654094,-1.23721 -4.223883,-3.12603 -0.526923,-0.63402 -0.543057,-0.67325 -0.773232,-1.88018 -0.276182,-1.44816 -0.270086,-2.33444 0.02382,-3.46282 1.132641,-4.3485 6.304089,-6.62744 10.053299,-4.43026 3.594311,2.10641 4.753783,6.2984 2.684346,9.70505 -1.626254,2.67711 -4.812653,3.98799 -7.76435,3.19424 z m 43.619678,0.004 c -4.518464,-1.21595 -6.668644,-6.71131 -4.093942,-10.46315 3.120456,-4.54709 9.227615,-4.34418 12.007284,0.39896 0.828408,1.41359 1.04183,3.04952 0.659412,5.05469 -0.259827,1.36239 -0.199114,1.25772 -1.736116,2.99352 -1.637461,1.84928 -4.413871,2.66798 -6.836638,2.01598 z"
       id="path846"
       inkscape:connector-curvature="0" />
  </g>
  <style
     id="style815"
     type="text/css">
	.st0{fill:#E84B3C;}
	.st1{fill:#C0392A;}
	.st2{fill:#FFFFFF;}
</style>
  <style
     id="style860"
     type="text/css">
	.st0{fill:#E84B3C;}
	.st1{fill:#C0392A;}
	.st2{fill:#FFFFFF;}
</style>
  <style
     id="style894"
     type="text/css">
	.st0{fill:#E84B3C;}
	.st1{fill:#C0392A;}
	.st2{fill:#FFFFFF;}
</style>
  <style
     type="text/css"
     id="style815-2">
	.st0{fill:#E84B3C;}
	.st1{fill:#C0392A;}
	.st2{fill:#FFFFFF;}
</style>
  <style
     type="text/css"
     id="style860-6">
	.st0{fill:#E84B3C;}
	.st1{fill:#C0392A;}
	.st2{fill:#FFFFFF;}
</style>
  <style
     type="text/css"
     id="style894-1">
	.st0{fill:#E84B3C;}
	.st1{fill:#C0392A;}
	.st2{fill:#FFFFFF;}
</style>
</svg>
