<?xml version="1.0" encoding="UTF-8" standalone="no"?>
<svg
   xmlns:dc="http://purl.org/dc/elements/1.1/"
   xmlns:cc="http://creativecommons.org/ns#"
   xmlns:rdf="http://www.w3.org/1999/02/22-rdf-syntax-ns#"
   xmlns:svg="http://www.w3.org/2000/svg"
   xmlns="http://www.w3.org/2000/svg"
   xmlns:sodipodi="http://sodipodi.sourceforge.net/DTD/sodipodi-0.dtd"
   xmlns:inkscape="http://www.inkscape.org/namespaces/inkscape"
   id="katman_1"
   style="enable-background:new 0 0 512 512;"
   version="1.1"
   viewBox="0 0 512 512"
   xml:space="preserve"
   sodipodi:docname="play (копия).svg"
   inkscape:version="0.92.3 (2405546, 2018-03-11)"><metadata
     id="metadata19"><rdf:RDF><cc:Work
         rdf:about=""><dc:format>image/svg+xml</dc:format><dc:type
           rdf:resource="http://purl.org/dc/dcmitype/StillImage" /></cc:Work></rdf:RDF></metadata><defs
     id="defs17" /><sodipodi:namedview
     pagecolor="#ffffff"
     bordercolor="#666666"
     borderopacity="1"
     objecttolerance="10"
     gridtolerance="10"
     guidetolerance="10"
     inkscape:pageopacity="0"
     inkscape:pageshadow="2"
     inkscape:window-width="2493"
     inkscape:window-height="1385"
     id="namedview15"
     showgrid="false"
     inkscape:zoom="1.84375"
     inkscape:cx="290.8475"
     inkscape:cy="256.23492"
     inkscape:window-x="67"
     inkscape:window-y="27"
     inkscape:window-maximized="1"
     inkscape:current-layer="g12" /><style
     type="text/css"
     id="style2">
	.st0{fill:#E84B3C;}
	.st1{fill:#C03A29;}
	.st2{fill:#FFFFFF;}
</style><g
     id="g12"><g
       id="g6"><circle
         class="st0"
         cx="256"
         cy="256"
         r="250"
         id="circle4" /></g><path
       id="path849"
       style="fill:#ffffff;stroke:none;stroke-width:1px;stroke-linecap:butt;stroke-linejoin:miter;stroke-opacity:1;fill-opacity:1"
       d="m 106.05504,348.37857 -5.6e-4,-184.5241 c 0,-6.6 1.7,-13.3 5.2,-19.4 7.1,-12.5 19.8,-19.9 34.19999,-19.9 h 221.20001 c 14.29999,0 27.1,7.5 34.2,19.9 3.55573,6.26011 5.28058,13.09708 5.18705,19.908 l 0.004,183.79201 c -2e-4,6.6 -1.7002,13.3 -5.2002,19.4 -7.1,12.5 -19.8,19.89999 -34.2,19.89999 H 145.44535 c -14.3,0 -27.1,-7.5 -34.2,-19.89999 -3.42836,-6.03584 -5.15464,-12.60796 -5.19011,-19.17591 m 23.28991,-0.22396 v -1.3e-4 c 0,2.7 0.7,5.4 2.1,7.9 2.9,5.1 8.1,8.1 13.9,8.1 h 221.29999 c 5.8,0 11,-3 13.9,-8.1 1.41683,-2.49167 2.11758,-5.19815 2.11393,-7.89787 l 0.0954,-184.30214 c 0,-2.7 -0.7,-5.4 -2.1,-7.9 -2.9,-5.1 -8.1,-8.1 -13.9,-8.1 H 145.45447 c -5.8,0 -11,3 -13.89999,8.1 -1.3761,2.42005 -2.07671,5.04274 -2.11249,7.66508 l -0.0968,184.53493"
       inkscape:connector-curvature="0" /></g></svg>